# xmcd
#
# Track frame offsets:
#	150
#	11054
#	22017
#	34742
#	51574
#	61737
#	75837
#	88052
#	96960
#	109621
#	123056
#	139710
#
# Disc length: 2116 seconds
#
# Revision: 0
# Processed by: cddbd v1.5.2PL0 Copyright (c) Steve Scherf et al.
# Submitted via: dBpowerAMP V4.0
#
DISCID=9108420c
DTITLE=Lindsay Butler and Barry Thornton - Once More For The Road
DYEAR=1900
DGENRE=Country
TTITLE0=The Morning Mail
TTITLE1=Ginger Marie
TTITLE2=Wattamondara Waltz
TTITLE3=Since Mungyer Days
TTITLE4=Picking On The Double Eagle
TTITLE5=A Bushman Can't Survive
TTITLE6=Smokie Mokes
TTITLE7=Bait The Hook
TTITLE8=Give Me Australia
TTITLE9=Silver Wings
TTITLE10=1234-1
TTITLE11=Thistles On The Hillside
EXTD=
EXTT0=
EXTT1=
EXTT2=
EXTT3=
EXTT4=
EXTT5=
EXTT6=
EXTT7=
EXTT8=
EXTT9=
EXTT10=
EXTT11=
PLAYORDER=
